G04 #@! TF.GenerationSoftware,KiCad,Pcbnew,8.0.2*
G04 #@! TF.CreationDate,2024-05-22T23:10:01-04:00*
G04 #@! TF.ProjectId,BoostConverter-TLV61070ADBVR,426f6f73-7443-46f6-9e76-65727465722d,rev?*
G04 #@! TF.SameCoordinates,Original*
G04 #@! TF.FileFunction,Legend,Bot*
G04 #@! TF.FilePolarity,Positive*
%FSLAX46Y46*%
G04 Gerber Fmt 4.6, Leading zero omitted, Abs format (unit mm)*
G04 Created by KiCad (PCBNEW 8.0.2) date 2024-05-22 23:10:01*
%MOMM*%
%LPD*%
G01*
G04 APERTURE LIST*
%ADD10C,0.150000*%
%ADD11C,0.120000*%
G04 APERTURE END LIST*
D10*
G36*
X127529547Y-83395000D02*
G01*
X126324575Y-83395000D01*
X126238113Y-83293517D01*
X126151651Y-83395000D01*
X125590015Y-83395000D01*
X125953082Y-82982473D01*
X125841341Y-82853879D01*
X125841341Y-82636992D01*
X126450971Y-82636992D01*
X126811473Y-82636992D01*
X126516916Y-82982473D01*
X126664928Y-83154298D01*
X127067196Y-83154298D01*
X127067196Y-82135073D01*
X126450971Y-82135073D01*
X126450971Y-82636992D01*
X125841341Y-82636992D01*
X125841341Y-81894371D01*
X127529547Y-81894371D01*
X127529547Y-83395000D01*
G37*
G36*
X125549715Y-83395000D02*
G01*
X123914997Y-83395000D01*
X123914997Y-83154298D01*
X124377349Y-83154298D01*
X125087363Y-83154298D01*
X125087363Y-82697808D01*
X124377349Y-82697808D01*
X124377349Y-83154298D01*
X123914997Y-83154298D01*
X123914997Y-82457107D01*
X124189771Y-82457107D01*
X124377349Y-82457107D01*
X125087363Y-82457107D01*
X125087363Y-82135073D01*
X124377349Y-82135073D01*
X124377349Y-82457107D01*
X124189771Y-82457107D01*
X124189771Y-81894371D01*
X125549715Y-81894371D01*
X125549715Y-83395000D01*
G37*
G36*
X123748668Y-83395000D02*
G01*
X123748668Y-83066737D01*
X123420406Y-83066737D01*
X123420406Y-83395000D01*
X123748668Y-83395000D01*
G37*
G36*
X122757286Y-83154298D02*
G01*
X122757286Y-82135073D01*
X121747220Y-82135073D01*
X121540224Y-81894371D01*
X123219638Y-81894371D01*
X123219638Y-83395000D01*
X121747220Y-83395000D01*
X121538026Y-83154298D01*
X122757286Y-83154298D01*
G37*
G36*
X120186142Y-82697808D02*
G01*
X119727454Y-82697808D01*
X119727454Y-81894371D01*
X121439108Y-81894371D01*
X121439108Y-83395000D01*
X120976756Y-83395000D01*
X120976756Y-82135073D01*
X120189805Y-82135073D01*
X120189805Y-82457107D01*
X120947080Y-82457107D01*
X120134484Y-83395000D01*
X119579076Y-83395000D01*
X120186142Y-82697808D01*
G37*
G36*
X118986665Y-83154298D02*
G01*
X118986665Y-82768150D01*
X117878047Y-82768150D01*
X117878047Y-82527449D01*
X118986665Y-82527449D01*
X118986665Y-82135073D01*
X117972203Y-82135073D01*
X117765207Y-81894371D01*
X119449017Y-81894371D01*
X119449017Y-83395000D01*
X117769603Y-83395000D01*
X117978431Y-83154298D01*
X118986665Y-83154298D01*
G37*
G36*
X117649436Y-83395000D02*
G01*
X117157042Y-83395000D01*
X117157042Y-82761922D01*
X116500517Y-82761922D01*
X116500517Y-83395000D01*
X115984676Y-83395000D01*
X115984676Y-82521221D01*
X116511142Y-82521221D01*
X117157042Y-82521221D01*
X117157042Y-82135073D01*
X116511142Y-82135073D01*
X116511142Y-82521221D01*
X115984676Y-82521221D01*
X115984676Y-81894371D01*
X117649436Y-81894371D01*
X117649436Y-83395000D01*
G37*
G36*
X113814701Y-81894371D02*
G01*
X115721260Y-81894371D01*
X115514265Y-82135073D01*
X114991096Y-82135073D01*
X114991096Y-83395000D01*
X114475256Y-83395000D01*
X114475256Y-82135073D01*
X114021697Y-82135073D01*
X113814701Y-81894371D01*
G37*
G36*
X113179059Y-83154298D02*
G01*
X113179059Y-82768150D01*
X112070440Y-82768150D01*
X112070440Y-82527449D01*
X113179059Y-82527449D01*
X113179059Y-82135073D01*
X112164596Y-82135073D01*
X111957600Y-81894371D01*
X113641410Y-81894371D01*
X113641410Y-83395000D01*
X111961997Y-83395000D01*
X112170824Y-83154298D01*
X113179059Y-83154298D01*
G37*
G36*
X110243015Y-82521221D02*
G01*
X111415381Y-82521221D01*
X111415381Y-82234724D01*
X111327820Y-82135073D01*
X110476390Y-82135073D01*
X110269394Y-81894371D01*
X111706274Y-81894371D01*
X111907775Y-82135806D01*
X111907775Y-82761922D01*
X110758856Y-82761922D01*
X110758856Y-83070401D01*
X110829931Y-83154298D01*
X111882129Y-83154298D01*
X111677332Y-83395000D01*
X110586299Y-83395000D01*
X110243015Y-83166022D01*
X110243015Y-82521221D01*
G37*
D11*
X126670000Y-76795000D02*
X129330000Y-76795000D01*
X126670000Y-79395000D02*
X126670000Y-76795000D01*
X126670000Y-79395000D02*
X129330000Y-79395000D01*
X128000000Y-74195000D02*
X129330000Y-74195000D01*
X129330000Y-74195000D02*
X129330000Y-75525000D01*
X129330000Y-79395000D02*
X129330000Y-76795000D01*
X107325000Y-76830000D02*
X109985000Y-76830000D01*
X107325000Y-79430000D02*
X107325000Y-76830000D01*
X107325000Y-79430000D02*
X109985000Y-79430000D01*
X108655000Y-74230000D02*
X109985000Y-74230000D01*
X109985000Y-74230000D02*
X109985000Y-75560000D01*
X109985000Y-79430000D02*
X109985000Y-76830000D01*
M02*
