G04 #@! TF.GenerationSoftware,KiCad,Pcbnew,8.0.2*
G04 #@! TF.CreationDate,2024-05-22T23:10:01-04:00*
G04 #@! TF.ProjectId,BoostConverter-TLV61070ADBVR,426f6f73-7443-46f6-9e76-65727465722d,rev?*
G04 #@! TF.SameCoordinates,Original*
G04 #@! TF.FileFunction,Copper,L1,Top*
G04 #@! TF.FilePolarity,Positive*
%FSLAX46Y46*%
G04 Gerber Fmt 4.6, Leading zero omitted, Abs format (unit mm)*
G04 Created by KiCad (PCBNEW 8.0.2) date 2024-05-22 23:10:01*
%MOMM*%
%LPD*%
G01*
G04 APERTURE LIST*
G04 Aperture macros list*
%AMRoundRect*
0 Rectangle with rounded corners*
0 $1 Rounding radius*
0 $2 $3 $4 $5 $6 $7 $8 $9 X,Y pos of 4 corners*
0 Add a 4 corners polygon primitive as box body*
4,1,4,$2,$3,$4,$5,$6,$7,$8,$9,$2,$3,0*
0 Add four circle primitives for the rounded corners*
1,1,$1+$1,$2,$3*
1,1,$1+$1,$4,$5*
1,1,$1+$1,$6,$7*
1,1,$1+$1,$8,$9*
0 Add four rect primitives between the rounded corners*
20,1,$1+$1,$2,$3,$4,$5,0*
20,1,$1+$1,$4,$5,$6,$7,0*
20,1,$1+$1,$6,$7,$8,$9,0*
20,1,$1+$1,$8,$9,$2,$3,0*%
G04 Aperture macros list end*
G04 #@! TA.AperFunction,SMDPad,CuDef*
%ADD10R,1.450000X1.500000*%
G04 #@! TD*
G04 #@! TA.AperFunction,SMDPad,CuDef*
%ADD11RoundRect,0.250000X-0.650000X0.325000X-0.650000X-0.325000X0.650000X-0.325000X0.650000X0.325000X0*%
G04 #@! TD*
G04 #@! TA.AperFunction,SMDPad,CuDef*
%ADD12RoundRect,0.150000X0.150000X-0.512500X0.150000X0.512500X-0.150000X0.512500X-0.150000X-0.512500X0*%
G04 #@! TD*
G04 #@! TA.AperFunction,SMDPad,CuDef*
%ADD13RoundRect,0.200000X0.200000X0.275000X-0.200000X0.275000X-0.200000X-0.275000X0.200000X-0.275000X0*%
G04 #@! TD*
G04 #@! TA.AperFunction,ComponentPad*
%ADD14R,1.700000X1.700000*%
G04 #@! TD*
G04 #@! TA.AperFunction,ComponentPad*
%ADD15O,1.700000X1.700000*%
G04 #@! TD*
G04 #@! TA.AperFunction,SMDPad,CuDef*
%ADD16RoundRect,0.237500X0.237500X-0.250000X0.237500X0.250000X-0.237500X0.250000X-0.237500X-0.250000X0*%
G04 #@! TD*
G04 #@! TA.AperFunction,ViaPad*
%ADD17C,0.600000*%
G04 #@! TD*
G04 #@! TA.AperFunction,Conductor*
%ADD18C,0.250000*%
G04 #@! TD*
G04 #@! TA.AperFunction,Conductor*
%ADD19C,0.500000*%
G04 #@! TD*
G04 APERTURE END LIST*
D10*
X114000000Y-74950000D03*
X114000000Y-78450000D03*
D11*
X124400000Y-77325000D03*
X124400000Y-80275000D03*
D12*
X119700000Y-78480500D03*
X120650000Y-78480500D03*
X121600000Y-78480500D03*
X121600000Y-76205500D03*
X120650000Y-76205500D03*
X119700000Y-76205500D03*
D11*
X117400000Y-74025000D03*
X117400000Y-76975000D03*
D13*
X121602000Y-73530000D03*
X119952000Y-73530000D03*
D14*
X115057000Y-70866000D03*
D15*
X117597000Y-70866000D03*
D16*
X124400000Y-75362500D03*
X124400000Y-73537500D03*
D14*
X128000000Y-75525000D03*
D15*
X128000000Y-78065000D03*
D14*
X108655000Y-75560000D03*
D15*
X108655000Y-78100000D03*
D17*
X119000000Y-74179999D03*
X119000000Y-73330000D03*
X119700000Y-77350000D03*
X122682000Y-78480500D03*
X119888000Y-70866000D03*
D18*
X119699500Y-78480000D02*
X119700000Y-78480500D01*
D19*
X124400000Y-75362500D02*
X124400000Y-77325000D01*
X121600000Y-78480500D02*
X122682000Y-78480500D01*
X117597000Y-70866000D02*
X119888000Y-70866000D01*
D18*
X121602000Y-76203500D02*
X121600000Y-76205500D01*
D19*
X121602000Y-73530000D02*
X124392500Y-73530000D01*
D18*
X124392500Y-73530000D02*
X124400000Y-73537500D01*
D19*
X121602000Y-73530000D02*
X121602000Y-76203500D01*
G04 #@! TA.AperFunction,Conductor*
G36*
X115785148Y-69089422D02*
G01*
X115841394Y-69100609D01*
X115878367Y-69107964D01*
X115905044Y-69119014D01*
X115977893Y-69167691D01*
X115998308Y-69188106D01*
X116046985Y-69260955D01*
X116058035Y-69287631D01*
X116076578Y-69380851D01*
X116078000Y-69395288D01*
X116078000Y-73000000D01*
X116165069Y-73087727D01*
X116165072Y-73087731D01*
X116386998Y-73311333D01*
X116475000Y-73400000D01*
X118042712Y-73400000D01*
X118057148Y-73401422D01*
X118113394Y-73412609D01*
X118150367Y-73419964D01*
X118177044Y-73431014D01*
X118249893Y-73479691D01*
X118270308Y-73500106D01*
X118318985Y-73572955D01*
X118330035Y-73599631D01*
X118348578Y-73692851D01*
X118350000Y-73707288D01*
X118350000Y-74400000D01*
X118350000Y-75250000D01*
X118800000Y-75692000D01*
X119626712Y-75692000D01*
X119641148Y-75693421D01*
X119716766Y-75708463D01*
X119743441Y-75719513D01*
X119801366Y-75758218D01*
X119821781Y-75778633D01*
X119860486Y-75836558D01*
X119871536Y-75863234D01*
X119885128Y-75931563D01*
X119885128Y-75960437D01*
X119871536Y-76028765D01*
X119860486Y-76055441D01*
X119821781Y-76113366D01*
X119801366Y-76133781D01*
X119743441Y-76172486D01*
X119716766Y-76183536D01*
X119664686Y-76193895D01*
X119641147Y-76198578D01*
X119626712Y-76200000D01*
X118531552Y-76200000D01*
X118517115Y-76198578D01*
X118423895Y-76180035D01*
X118397220Y-76168986D01*
X118318192Y-76116181D01*
X118306978Y-76106978D01*
X118075000Y-75875000D01*
X118000000Y-75800000D01*
X117893936Y-75799893D01*
X117890555Y-75799889D01*
X116778466Y-75798768D01*
X114010763Y-75795978D01*
X111775568Y-75793726D01*
X111775565Y-75793726D01*
X111650000Y-75793600D01*
X111561781Y-75882954D01*
X111561779Y-75882956D01*
X111091257Y-76359540D01*
X111080004Y-76368881D01*
X111000602Y-76422489D01*
X110973749Y-76433713D01*
X110895446Y-76449419D01*
X110879813Y-76452555D01*
X110865261Y-76454000D01*
X107019288Y-76454000D01*
X107004851Y-76452578D01*
X106911631Y-76434035D01*
X106884955Y-76422985D01*
X106812106Y-76374308D01*
X106791691Y-76353893D01*
X106743014Y-76281044D01*
X106731964Y-76254367D01*
X106713422Y-76161147D01*
X106712000Y-76146711D01*
X106712000Y-69395288D01*
X106713422Y-69380852D01*
X106731964Y-69287632D01*
X106731965Y-69287631D01*
X106731964Y-69287630D01*
X106743013Y-69260957D01*
X106791691Y-69188106D01*
X106812106Y-69167691D01*
X106831546Y-69154700D01*
X106884957Y-69119013D01*
X106911630Y-69107964D01*
X106970900Y-69096175D01*
X107004852Y-69089422D01*
X107019288Y-69088000D01*
X115770712Y-69088000D01*
X115785148Y-69089422D01*
G37*
G04 #@! TD.AperFunction*
G04 #@! TA.AperFunction,Conductor*
G36*
X118481925Y-76451342D02*
G01*
X118488923Y-76452381D01*
X118492070Y-76452848D01*
X118492086Y-76452850D01*
X118498021Y-76453434D01*
X118506497Y-76454269D01*
X118506499Y-76454269D01*
X118506507Y-76454270D01*
X118531552Y-76455500D01*
X118815440Y-76455500D01*
X118839623Y-76457881D01*
X118852342Y-76460411D01*
X118897043Y-76478927D01*
X118920913Y-76494877D01*
X118955122Y-76529086D01*
X118971072Y-76552956D01*
X118989588Y-76597655D01*
X118997617Y-76638020D01*
X119000000Y-76662210D01*
X119000000Y-76929291D01*
X118999999Y-76929291D01*
X119000000Y-76929296D01*
X119000000Y-77000000D01*
X119100000Y-77100000D01*
X120273377Y-77100000D01*
X120304387Y-77103940D01*
X120307876Y-77104842D01*
X120367857Y-77140667D01*
X120380031Y-77156116D01*
X120640758Y-77547207D01*
X120650639Y-77560792D01*
X120658154Y-77570282D01*
X120669098Y-77582996D01*
X120682761Y-77597617D01*
X120723322Y-77641021D01*
X120723332Y-77641030D01*
X120723340Y-77641038D01*
X120744920Y-77660644D01*
X120766687Y-77686699D01*
X120865009Y-77844016D01*
X120873130Y-77859286D01*
X120885159Y-77886300D01*
X120894674Y-77919478D01*
X120898792Y-77948769D01*
X120900000Y-77966032D01*
X120900000Y-78049975D01*
X120900001Y-78050226D01*
X120900001Y-78050366D01*
X120903760Y-79367318D01*
X120903760Y-79367323D01*
X120904000Y-79451200D01*
X120963999Y-79509814D01*
X120964002Y-79509818D01*
X120992583Y-79537739D01*
X121060000Y-79603600D01*
X122681158Y-79603600D01*
X122681305Y-79603600D01*
X122682000Y-79603600D01*
X122682828Y-79603594D01*
X122682885Y-79603594D01*
X122774410Y-79602957D01*
X122941000Y-79601800D01*
X123199305Y-79600005D01*
X123199871Y-79600001D01*
X123200201Y-79600000D01*
X123200695Y-79600000D01*
X126108600Y-79600000D01*
X126190000Y-79600000D01*
X126349255Y-79444629D01*
X126539665Y-79258864D01*
X126539666Y-79258862D01*
X126600000Y-79200000D01*
X126600000Y-77312210D01*
X126602381Y-77288029D01*
X126610412Y-77247651D01*
X126628927Y-77202956D01*
X126644877Y-77179086D01*
X126679086Y-77144877D01*
X126702956Y-77128927D01*
X126747653Y-77110412D01*
X126788027Y-77102381D01*
X126812211Y-77100000D01*
X127549022Y-77100000D01*
X127549305Y-77100000D01*
X127549836Y-77100001D01*
X127550202Y-77100003D01*
X127550876Y-77100008D01*
X128444376Y-77107835D01*
X129161926Y-77114120D01*
X129193796Y-77118577D01*
X129245566Y-77132854D01*
X129300663Y-77165095D01*
X129326642Y-77191303D01*
X129358398Y-77246679D01*
X129371293Y-77295086D01*
X129372221Y-77298567D01*
X129376400Y-77330487D01*
X129376400Y-82071453D01*
X129374024Y-82095610D01*
X129366017Y-82135923D01*
X129347553Y-82180570D01*
X129331646Y-82204420D01*
X129297521Y-82238622D01*
X129273706Y-82254583D01*
X129229099Y-82273147D01*
X129188803Y-82281244D01*
X129164653Y-82283674D01*
X120828975Y-82302357D01*
X118209470Y-82308229D01*
X106924673Y-82333522D01*
X106900449Y-82331188D01*
X106860010Y-82323227D01*
X106815214Y-82304760D01*
X106791295Y-82288826D01*
X106756997Y-82254604D01*
X106741007Y-82230716D01*
X106722441Y-82185965D01*
X106714389Y-82145543D01*
X106712000Y-82121318D01*
X106712000Y-77428210D01*
X106714381Y-77404029D01*
X106722412Y-77363651D01*
X106740927Y-77318956D01*
X106756877Y-77295086D01*
X106791086Y-77260877D01*
X106814956Y-77244927D01*
X106859653Y-77226412D01*
X106900027Y-77218381D01*
X106924211Y-77216000D01*
X110786589Y-77216000D01*
X110810771Y-77218381D01*
X110851146Y-77226412D01*
X110895843Y-77244927D01*
X110919713Y-77260877D01*
X110953922Y-77295086D01*
X110969872Y-77318956D01*
X110988388Y-77363655D01*
X110996417Y-77404020D01*
X110998800Y-77428210D01*
X110998800Y-79125000D01*
X111053791Y-79182892D01*
X111053792Y-79182893D01*
X111364332Y-79509814D01*
X111450000Y-79600000D01*
X120166039Y-79600000D01*
X120166042Y-79600000D01*
X120250000Y-79600000D01*
X120396000Y-79451200D01*
X120396000Y-79248000D01*
X120396000Y-77900000D01*
X120200000Y-77600000D01*
X120091765Y-77600000D01*
X120091764Y-77600000D01*
X116712211Y-77600000D01*
X116688020Y-77597617D01*
X116672744Y-77594578D01*
X116647656Y-77589588D01*
X116602956Y-77571072D01*
X116579086Y-77555122D01*
X116544877Y-77520913D01*
X116528927Y-77497043D01*
X116510412Y-77452346D01*
X116502381Y-77411971D01*
X116500000Y-77387789D01*
X116500000Y-76662210D01*
X116502381Y-76638029D01*
X116510412Y-76597651D01*
X116528927Y-76552956D01*
X116544877Y-76529086D01*
X116579086Y-76494877D01*
X116602956Y-76478927D01*
X116647653Y-76460412D01*
X116688027Y-76452381D01*
X116712211Y-76450000D01*
X118463726Y-76450000D01*
X118481925Y-76451342D01*
G37*
G04 #@! TD.AperFunction*
G04 #@! TA.AperFunction,Conductor*
G36*
X120161971Y-73002381D02*
G01*
X120202346Y-73010412D01*
X120247043Y-73028927D01*
X120270913Y-73044877D01*
X120305122Y-73079086D01*
X120321072Y-73102956D01*
X120339588Y-73147655D01*
X120347617Y-73188020D01*
X120350000Y-73212210D01*
X120350000Y-74287789D01*
X120347617Y-74311982D01*
X120339588Y-74352344D01*
X120321072Y-74397043D01*
X120305122Y-74420913D01*
X120270913Y-74455122D01*
X120247043Y-74471072D01*
X120202344Y-74489588D01*
X120185841Y-74492870D01*
X120161978Y-74497617D01*
X120137789Y-74500000D01*
X118862211Y-74500000D01*
X118838020Y-74497617D01*
X118822744Y-74494578D01*
X118797656Y-74489588D01*
X118752956Y-74471072D01*
X118729086Y-74455122D01*
X118694877Y-74420913D01*
X118678927Y-74397043D01*
X118660412Y-74352346D01*
X118652381Y-74311971D01*
X118650000Y-74287789D01*
X118650000Y-73212210D01*
X118652381Y-73188029D01*
X118660412Y-73147651D01*
X118678927Y-73102956D01*
X118694877Y-73079086D01*
X118729086Y-73044877D01*
X118752956Y-73028927D01*
X118797653Y-73010412D01*
X118838027Y-73002381D01*
X118862211Y-73000000D01*
X120137789Y-73000000D01*
X120161971Y-73002381D01*
G37*
G04 #@! TD.AperFunction*
G04 #@! TA.AperFunction,Conductor*
G36*
X129071744Y-73405540D02*
G01*
X129086099Y-73406968D01*
X129112843Y-73412299D01*
X129178809Y-73425449D01*
X129205343Y-73436420D01*
X129261555Y-73473839D01*
X129277885Y-73484709D01*
X129298248Y-73504957D01*
X129346946Y-73577226D01*
X129358067Y-73603700D01*
X129377073Y-73696302D01*
X129378582Y-73710650D01*
X129397782Y-76390530D01*
X129396451Y-76405041D01*
X129378414Y-76498792D01*
X129367459Y-76525645D01*
X129348384Y-76554473D01*
X129318894Y-76599038D01*
X129298459Y-76619619D01*
X129225418Y-76668708D01*
X129198643Y-76679855D01*
X129105024Y-76698565D01*
X129090522Y-76700000D01*
X126600000Y-76700000D01*
X126230000Y-76700000D01*
X126230000Y-76885000D01*
X126230000Y-76885001D01*
X126230000Y-77669111D01*
X126228578Y-77683548D01*
X126210035Y-77776768D01*
X126198985Y-77803444D01*
X126150308Y-77876293D01*
X126129893Y-77896708D01*
X126057044Y-77945385D01*
X126030368Y-77956435D01*
X125937149Y-77974978D01*
X125922712Y-77976400D01*
X123629596Y-77976400D01*
X123615351Y-77975016D01*
X123523315Y-77956962D01*
X123496938Y-77946199D01*
X123418541Y-77894712D01*
X123407395Y-77885737D01*
X123177276Y-77660445D01*
X123177272Y-77660441D01*
X123177270Y-77660440D01*
X123090000Y-77575000D01*
X122967868Y-77574810D01*
X122967870Y-77574810D01*
X121070319Y-77571858D01*
X121058273Y-77570852D01*
X120979940Y-77557801D01*
X120957133Y-77550024D01*
X120892563Y-77515402D01*
X120873467Y-77500712D01*
X120819247Y-77442691D01*
X120811746Y-77433219D01*
X120449404Y-76889705D01*
X120444058Y-76880248D01*
X120413546Y-76815606D01*
X120407267Y-76794867D01*
X120396798Y-76724156D01*
X120396000Y-76713318D01*
X120396000Y-76461288D01*
X120397422Y-76446851D01*
X120412463Y-76371231D01*
X120423512Y-76344560D01*
X120462218Y-76286633D01*
X120482633Y-76266218D01*
X120497662Y-76256175D01*
X120540560Y-76227512D01*
X120567231Y-76216463D01*
X120635567Y-76202871D01*
X120664433Y-76202871D01*
X120732766Y-76216463D01*
X120759441Y-76227513D01*
X120817366Y-76266218D01*
X120837781Y-76286633D01*
X120876486Y-76344558D01*
X120887536Y-76371234D01*
X120902578Y-76446851D01*
X120904000Y-76461288D01*
X120904000Y-76809600D01*
X121107200Y-77114400D01*
X122952948Y-77114400D01*
X122952949Y-77114400D01*
X123075000Y-77114400D01*
X123162384Y-77029195D01*
X123162386Y-77029194D01*
X123310268Y-76885000D01*
X123407482Y-76790208D01*
X123418608Y-76781280D01*
X123496889Y-76730042D01*
X123523203Y-76719337D01*
X123594011Y-76705485D01*
X123615013Y-76701377D01*
X123629220Y-76700000D01*
X125149999Y-76700000D01*
X125150000Y-76700000D01*
X125400000Y-76700000D01*
X125400000Y-76200000D01*
X125400000Y-73707745D01*
X125401423Y-73693305D01*
X125420003Y-73599985D01*
X125431068Y-73573301D01*
X125479838Y-73500402D01*
X125500282Y-73479989D01*
X125573253Y-73431331D01*
X125599959Y-73420304D01*
X125667471Y-73406968D01*
X125693295Y-73401867D01*
X125707746Y-73400464D01*
X129071744Y-73405540D01*
G37*
G04 #@! TD.AperFunction*
G04 #@! TA.AperFunction,Conductor*
G36*
X115454934Y-77675455D02*
G01*
X115475386Y-77680623D01*
X115507293Y-77697849D01*
X115522835Y-77712113D01*
X115534666Y-77726032D01*
X115700000Y-77978000D01*
X119299250Y-77978000D01*
X119299304Y-77978000D01*
X119300000Y-77978000D01*
X119300692Y-77977989D01*
X119300750Y-77977989D01*
X119400000Y-77976500D01*
X119499303Y-77975010D01*
X119499352Y-77975009D01*
X119499685Y-77975006D01*
X119499907Y-77975004D01*
X119500325Y-77975001D01*
X119500750Y-77975000D01*
X119875681Y-77975000D01*
X119903999Y-77980633D01*
X119932791Y-77992559D01*
X119972839Y-78032605D01*
X119984766Y-78061397D01*
X119990400Y-78089718D01*
X119990400Y-79184081D01*
X119984766Y-79212402D01*
X119972839Y-79241194D01*
X119932794Y-79281239D01*
X119904002Y-79293166D01*
X119875681Y-79298800D01*
X113314719Y-79298800D01*
X113286401Y-79293167D01*
X113257606Y-79281240D01*
X113217559Y-79241191D01*
X113205633Y-79212399D01*
X113200000Y-79184081D01*
X113200000Y-77787918D01*
X113205633Y-77759600D01*
X113217559Y-77730808D01*
X113257606Y-77690759D01*
X113286401Y-77678833D01*
X113314719Y-77673200D01*
X115436805Y-77673200D01*
X115454934Y-77675455D01*
G37*
G04 #@! TD.AperFunction*
M02*
