G04 #@! TF.GenerationSoftware,KiCad,Pcbnew,8.0.2*
G04 #@! TF.CreationDate,2024-05-22T23:10:01-04:00*
G04 #@! TF.ProjectId,BoostConverter-TLV61070ADBVR,426f6f73-7443-46f6-9e76-65727465722d,rev?*
G04 #@! TF.SameCoordinates,Original*
G04 #@! TF.FileFunction,Copper,L2,Bot*
G04 #@! TF.FilePolarity,Positive*
%FSLAX46Y46*%
G04 Gerber Fmt 4.6, Leading zero omitted, Abs format (unit mm)*
G04 Created by KiCad (PCBNEW 8.0.2) date 2024-05-22 23:10:01*
%MOMM*%
%LPD*%
G01*
G04 APERTURE LIST*
G04 #@! TA.AperFunction,ComponentPad*
%ADD10R,1.700000X1.700000*%
G04 #@! TD*
G04 #@! TA.AperFunction,ComponentPad*
%ADD11O,1.700000X1.700000*%
G04 #@! TD*
G04 #@! TA.AperFunction,ViaPad*
%ADD12C,0.600000*%
G04 #@! TD*
G04 #@! TA.AperFunction,Conductor*
%ADD13C,0.500000*%
G04 #@! TD*
G04 APERTURE END LIST*
D10*
X115057000Y-70866000D03*
D11*
X117597000Y-70866000D03*
D10*
X128000000Y-75525000D03*
D11*
X128000000Y-78065000D03*
D10*
X108655000Y-75560000D03*
D11*
X108655000Y-78100000D03*
D12*
X119000000Y-74179999D03*
X119000000Y-73330000D03*
X119700000Y-77350000D03*
X122682000Y-78480500D03*
X119888000Y-70866000D03*
D13*
X119888000Y-70866000D02*
X122174000Y-70866000D01*
X122174000Y-70866000D02*
X122682000Y-71374000D01*
X122682000Y-71374000D02*
X122682000Y-78480500D01*
G04 #@! TA.AperFunction,Conductor*
G36*
X120711971Y-72902381D02*
G01*
X120752346Y-72910412D01*
X120797043Y-72928927D01*
X120820913Y-72944877D01*
X120855122Y-72979086D01*
X120871072Y-73002956D01*
X120889588Y-73047655D01*
X120897617Y-73088020D01*
X120900000Y-73112210D01*
X120900000Y-77537789D01*
X120897617Y-77561982D01*
X120889588Y-77602344D01*
X120871072Y-77647043D01*
X120855122Y-77670913D01*
X120820913Y-77705122D01*
X120797043Y-77721072D01*
X120752344Y-77739588D01*
X120735841Y-77742870D01*
X120711978Y-77747617D01*
X120687789Y-77750000D01*
X118862211Y-77750000D01*
X118838020Y-77747617D01*
X118822744Y-77744578D01*
X118797656Y-77739588D01*
X118752956Y-77721072D01*
X118729086Y-77705122D01*
X118694877Y-77670913D01*
X118678927Y-77647043D01*
X118660412Y-77602346D01*
X118652381Y-77561971D01*
X118650000Y-77537789D01*
X118650000Y-73112210D01*
X118652381Y-73088029D01*
X118660412Y-73047651D01*
X118678927Y-73002956D01*
X118694877Y-72979086D01*
X118729086Y-72944877D01*
X118752956Y-72928927D01*
X118797653Y-72910412D01*
X118838027Y-72902381D01*
X118862211Y-72900000D01*
X120687789Y-72900000D01*
X120711971Y-72902381D01*
G37*
G04 #@! TD.AperFunction*
M02*
